<svg width="19" height="24" viewBox="0 0 19 24" fill="none" xmlns="http://www.w3.org/2000/svg">
<g filter="url(#filter0_d_53_403)">
<path d="M16 8.875V3.875C16 3.1875 15.4375 2.625 14.75 2.625H2.25C1.5625 2.625 1 3.1875 1 3.875V8.875H16ZM2.875 4.5C2.875 4.15625 3.15625 3.875 3.5 3.875H13.5C13.8438 3.875 14.125 4.15625 14.125 4.5V7C14.125 7.34375 13.8438 7.625 13.5 7.625H3.5C3.15625 7.625 2.875 7.34375 2.875 7V4.5ZM1 9.5V20.125C1 20.8125 1.5625 21.375 2.25 21.375H14.75C15.4375 21.375 16 20.8125 16 20.125V9.5H1ZM3.8125 19.5C3.295 19.5 2.875 19.08 2.875 18.5625C2.875 18.045 3.295 17.625 3.8125 17.625C4.33 17.625 4.75 18.045 4.75 18.5625C4.75 19.08 4.33 19.5 3.8125 19.5ZM3.8125 16.375C3.295 16.375 2.875 15.955 2.875 15.4375C2.875 14.92 3.295 14.5 3.8125 14.5C4.33 14.5 4.75 14.92 4.75 15.4375C4.75 15.955 4.33 16.375 3.8125 16.375ZM3.8125 13.25C3.295 13.25 2.875 12.83 2.875 12.3125C2.875 11.795 3.295 11.375 3.8125 11.375C4.33 11.375 4.75 11.795 4.75 12.3125C4.75 12.83 4.33 13.25 3.8125 13.25ZM6.9375 19.5C6.42 19.5 6 19.08 6 18.5625C6 18.045 6.42 17.625 6.9375 17.625C7.455 17.625 7.875 18.045 7.875 18.5625C7.875 19.08 7.455 19.5 6.9375 19.5ZM6.9375 16.375C6.42 16.375 6 15.955 6 15.4375C6 14.92 6.42 14.5 6.9375 14.5C7.455 14.5 7.875 14.92 7.875 15.4375C7.875 15.955 7.455 16.375 6.9375 16.375ZM6.9375 13.25C6.42 13.25 6 12.83 6 12.3125C6 11.795 6.42 11.375 6.9375 11.375C7.455 11.375 7.875 11.795 7.875 12.3125C7.875 12.83 7.455 13.25 6.9375 13.25ZM10.0625 19.5C9.545 19.5 9.125 19.08 9.125 18.5625C9.125 18.045 9.545 17.625 10.0625 17.625C10.58 17.625 11 18.045 11 18.5625C11 19.08 10.58 19.5 10.0625 19.5ZM10.0625 16.375C9.545 16.375 9.125 15.955 9.125 15.4375C9.125 14.92 9.545 14.5 10.0625 14.5C10.58 14.5 11 14.92 11 15.4375C11 15.955 10.58 16.375 10.0625 16.375ZM10.0625 13.25C9.545 13.25 9.125 12.83 9.125 12.3125C9.125 11.795 9.545 11.375 10.0625 11.375C10.58 11.375 11 11.795 11 12.3125C11 12.83 10.58 13.25 10.0625 13.25ZM14.125 18.5625C14.125 19.0806 13.7056 19.5 13.1875 19.5C12.6694 19.5 12.25 19.0806 12.25 18.5625V15.4375C12.25 14.9194 12.6694 14.5 13.1875 14.5C13.7056 14.5 14.125 14.9194 14.125 15.4375V18.5625ZM13.1875 13.25C12.67 13.25 12.25 12.83 12.25 12.3125C12.25 11.795 12.67 11.375 13.1875 11.375C13.705 11.375 14.125 11.795 14.125 12.3125C14.125 12.83 13.705 13.25 13.1875 13.25Z" fill="#B1FA53"/>
</g>
<defs>
<filter id="filter0_d_53_403" x="0" y="0.625" width="19" height="22.75" filterUnits="userSpaceOnUse" color-interpolation-filters="sRGB">
<feFlood flood-opacity="0" result="BackgroundImageFix"/>
<feColorMatrix in="SourceAlpha" type="matrix" values="0 0 0 0 0 0 0 0 0 0 0 0 0 0 0 0 0 0 127 0" result="hardAlpha"/>
<feOffset dx="1"/>
<feGaussianBlur stdDeviation="1"/>
<feComposite in2="hardAlpha" operator="out"/>
<feColorMatrix type="matrix" values="0 0 0 0 0.748188 0 0 0 0 0.954167 0 0 0 0 0.481059 0 0 0 0.25 0"/>
<feBlend mode="normal" in2="BackgroundImageFix" result="effect1_dropShadow_53_403"/>
<feBlend mode="normal" in="SourceGraphic" in2="effect1_dropShadow_53_403" result="shape"/>
</filter>
</defs>
</svg>
