<svg width="15" height="20" viewBox="0 0 15 20" fill="none" xmlns="http://www.w3.org/2000/svg">
<path opacity="0.7" d="M15 6.875V1.875C15 1.1875 14.4375 0.625 13.75 0.625H1.25C0.5625 0.625 0 1.1875 0 1.875V6.875H15ZM1.875 2.5C1.875 2.15625 2.15625 1.875 2.5 1.875H12.5C12.8438 1.875 13.125 2.15625 13.125 2.5V5C13.125 5.34375 12.8438 5.625 12.5 5.625H2.5C2.15625 5.625 1.875 5.34375 1.875 5V2.5ZM0 7.5V18.125C0 18.8125 0.5625 19.375 1.25 19.375H13.75C14.4375 19.375 15 18.8125 15 18.125V7.5H0ZM2.8125 17.5C2.295 17.5 1.875 17.08 1.875 16.5625C1.875 16.045 2.295 15.625 2.8125 15.625C3.33 15.625 3.75 16.045 3.75 16.5625C3.75 17.08 3.33 17.5 2.8125 17.5ZM2.8125 14.375C2.295 14.375 1.875 13.955 1.875 13.4375C1.875 12.92 2.295 12.5 2.8125 12.5C3.33 12.5 3.75 12.92 3.75 13.4375C3.75 13.955 3.33 14.375 2.8125 14.375ZM2.8125 11.25C2.295 11.25 1.875 10.83 1.875 10.3125C1.875 9.795 2.295 9.375 2.8125 9.375C3.33 9.375 3.75 9.795 3.75 10.3125C3.75 10.83 3.33 11.25 2.8125 11.25ZM5.9375 17.5C5.42 17.5 5 17.08 5 16.5625C5 16.045 5.42 15.625 5.9375 15.625C6.455 15.625 6.875 16.045 6.875 16.5625C6.875 17.08 6.455 17.5 5.9375 17.5ZM5.9375 14.375C5.42 14.375 5 13.955 5 13.4375C5 12.92 5.42 12.5 5.9375 12.5C6.455 12.5 6.875 12.92 6.875 13.4375C6.875 13.955 6.455 14.375 5.9375 14.375ZM5.9375 11.25C5.42 11.25 5 10.83 5 10.3125C5 9.795 5.42 9.375 5.9375 9.375C6.455 9.375 6.875 9.795 6.875 10.3125C6.875 10.83 6.455 11.25 5.9375 11.25ZM9.0625 17.5C8.545 17.5 8.125 17.08 8.125 16.5625C8.125 16.045 8.545 15.625 9.0625 15.625C9.58 15.625 10 16.045 10 16.5625C10 17.08 9.58 17.5 9.0625 17.5ZM9.0625 14.375C8.545 14.375 8.125 13.955 8.125 13.4375C8.125 12.92 8.545 12.5 9.0625 12.5C9.58 12.5 10 12.92 10 13.4375C10 13.955 9.58 14.375 9.0625 14.375ZM9.0625 11.25C8.545 11.25 8.125 10.83 8.125 10.3125C8.125 9.795 8.545 9.375 9.0625 9.375C9.58 9.375 10 9.795 10 10.3125C10 10.83 9.58 11.25 9.0625 11.25ZM13.125 16.5625C13.125 17.0806 12.7056 17.5 12.1875 17.5C11.6694 17.5 11.25 17.0806 11.25 16.5625V13.4375C11.25 12.9194 11.6694 12.5 12.1875 12.5C12.7056 12.5 13.125 12.9194 13.125 13.4375V16.5625ZM12.1875 11.25C11.67 11.25 11.25 10.83 11.25 10.3125C11.25 9.795 11.67 9.375 12.1875 9.375C12.705 9.375 13.125 9.795 13.125 10.3125C13.125 10.83 12.705 11.25 12.1875 11.25Z" fill="white"/>
</svg>
