<svg width="21" height="24" viewBox="0 0 21 24" fill="none" xmlns="http://www.w3.org/2000/svg">
<g opacity="0.7" filter="url(#filter0_d_53_415)">
<path d="M2 18.6111V6.52222C2 5.46435 2 4.9354 2.20437 4.53135C2.38412 4.17593 2.67096 3.88697 3.02377 3.70588C3.42485 3.5 3.94991 3.5 5 3.5H14C15.0501 3.5 15.5752 3.5 15.9763 3.70588C16.329 3.88697 16.6159 4.17593 16.7956 4.53135C17 4.9354 17 5.46435 17 6.52222V16.7222H3.875C2.83947 16.7222 2 17.5679 2 18.6111ZM2 18.6111C2 19.6543 2.83947 20.5 3.875 20.5H17M6.6875 7.27778H12.3125M6.6875 11.0556H12.3125M16.0625 16.7222V20.5" stroke="white" stroke-opacity="0.7" stroke-width="2" stroke-linecap="round" stroke-linejoin="round" shape-rendering="crispEdges"/>
</g>
<defs>
<filter id="filter0_d_53_415" x="0" y="0.5" width="21" height="23" filterUnits="userSpaceOnUse" color-interpolation-filters="sRGB">
<feFlood flood-opacity="0" result="BackgroundImageFix"/>
<feColorMatrix in="SourceAlpha" type="matrix" values="0 0 0 0 0 0 0 0 0 0 0 0 0 0 0 0 0 0 127 0" result="hardAlpha"/>
<feOffset dx="1"/>
<feGaussianBlur stdDeviation="1"/>
<feComposite in2="hardAlpha" operator="out"/>
<feColorMatrix type="matrix" values="0 0 0 0 0.748188 0 0 0 0 0.954167 0 0 0 0 0.481059 0 0 0 0.25 0"/>
<feBlend mode="normal" in2="BackgroundImageFix" result="effect1_dropShadow_53_415"/>
<feBlend mode="normal" in="SourceGraphic" in2="effect1_dropShadow_53_415" result="shape"/>
</filter>
</defs>
</svg>
