<svg width="33" height="29" viewBox="0 0 33 29" fill="none" xmlns="http://www.w3.org/2000/svg">
<path d="M7.5 13H25.5M31.5 8.5V8.2C31.5 5.67976 31.5 4.41964 31.0095 3.45705C30.5781 2.61031 29.8898 1.9219 29.043 1.49047C28.0803 1 26.8203 1 24.3 1H24M31.5 20.5V20.8C31.5 23.3203 31.5 24.5803 31.0095 25.543C30.5781 26.3897 29.8898 27.0781 29.043 27.5095C28.0803 28 26.8203 28 24.3 28H24M9 28H8.7C6.17976 28 4.91964 28 3.95705 27.5095C3.11031 27.0781 2.4219 26.3897 1.99047 25.543C1.5 24.5803 1.5 23.3203 1.5 20.8V20.5M1.5 8.5V8.2C1.5 5.67976 1.5 4.41964 1.99047 3.45705C2.4219 2.61031 3.11031 1.9219 3.95705 1.49047C4.91964 1 6.17976 1 8.7 1H9M7.5 17.2V11.8C7.5 10.1198 7.5 9.27976 7.82698 8.63803C8.11459 8.07354 8.57354 7.61459 9.13803 7.32698C9.77976 7 10.6198 7 12.3 7H20.7C22.3802 7 23.2203 7 23.862 7.32698C24.4265 7.61459 24.8855 8.07354 25.173 8.63803C25.5 9.27976 25.5 10.1198 25.5 11.8V17.2C25.5 18.8802 25.5 19.7203 25.173 20.362C24.8855 20.9265 24.4265 21.3854 23.862 21.673C23.2203 22 22.3802 22 20.7 22H12.3C10.6198 22 9.77976 22 9.13803 21.673C8.57354 21.3854 8.11459 20.9265 7.82698 20.362C7.5 19.7203 7.5 18.8802 7.5 17.2Z" stroke="white" stroke-width="2" stroke-linecap="round" stroke-linejoin="round"/>
</svg>
