<svg width="24" height="25" viewBox="0 0 24 25" fill="none" xmlns="http://www.w3.org/2000/svg">
<path d="M22.4207 12.5C14.5416 14.3935 13.1546 15.927 11.4462 24.648C9.73573 15.925 8.3507 14.3915 0.47168 12.5C8.3507 10.6085 9.73573 9.07505 11.4462 0.35199C13.1566 9.07505 14.5416 10.6085 22.4207 12.5Z" fill="#1F1F1F"/>
<path d="M23.81 4.63522C21.3267 5.23113 20.8915 5.71518 20.3525 8.46287C19.8136 5.71518 19.3783 5.23113 16.895 4.63522C19.3783 4.03931 19.8136 3.55526 20.3525 0.807568C20.8915 3.55526 21.3267 4.03931 23.81 4.63522Z" fill="#1F1F1F"/>
<path d="M4.19781 19.0082C2.69074 19.3702 2.42635 19.6631 2.0989 21.3308C1.77146 19.6631 1.50706 19.3702 0 19.0082C1.50706 18.6462 1.77146 18.3533 2.0989 16.6856C2.42635 18.3533 2.69074 18.6462 4.19781 19.0082Z" fill="#1F1F1F"/>
</svg>
