<svg width="13" height="15" viewBox="0 0 13 15" fill="none" xmlns="http://www.w3.org/2000/svg">
<path d="M12.3787 3.17877L6.75375 0.678768C6.67386 0.643277 6.58742 0.624939 6.5 0.624939C6.41258 0.624939 6.32614 0.643277 6.24625 0.678768L0.62125 3.17877C0.510738 3.22786 0.416842 3.30797 0.350947 3.40936C0.285051 3.51076 0.249985 3.62909 0.25 3.75002V4.18752C0.250634 6.24918 0.80229 8.27322 1.84786 10.0501C2.89343 11.8269 4.39491 13.2921 6.19687 14.2938C6.28963 14.3452 6.39394 14.3722 6.5 14.3722C6.60606 14.3722 6.71037 14.3452 6.80312 14.2938C8.60508 13.2921 10.1066 11.8269 11.1521 10.0501C12.1977 8.27322 12.7494 6.24918 12.75 4.18752V3.75002C12.75 3.62909 12.7149 3.51076 12.6491 3.40936C12.5832 3.30797 12.4893 3.22786 12.3787 3.17877ZM11.5 4.18752C11.4994 5.96679 11.0387 7.71569 10.1626 9.26432C9.28653 10.813 8.0248 12.1087 6.5 13.0256C4.9752 12.1087 3.71347 10.813 2.83736 9.26432C1.96125 7.71569 1.50055 5.96679 1.5 4.18752V4.15627L6.5 1.93377L11.5 4.15627V4.18752ZM5.875 6.25002H7.125V11.25H5.875V6.25002ZM5.875 3.75002H7.125V5.00002H5.875V3.75002Z" fill="white"/>
</svg>
