<svg width="123" height="15" viewBox="0 0 123 15" fill="none" xmlns="http://www.w3.org/2000/svg">
<path d="M1.5 6.5C0.947715 6.5 0.5 6.94772 0.5 7.5C0.5 8.05228 0.947715 8.5 1.5 8.5V6.5ZM122.207 8.20711C122.598 7.81658 122.598 7.18342 122.207 6.79289L115.843 0.428932C115.453 0.0384078 114.819 0.0384078 114.429 0.428932C114.038 0.819457 114.038 1.45262 114.429 1.84315L120.086 7.5L114.429 13.1569C114.038 13.5474 114.038 14.1805 114.429 14.5711C114.819 14.9616 115.453 14.9616 115.843 14.5711L122.207 8.20711ZM1.5 8.5H121.5V6.5H1.5V8.5Z" fill="#1F1F1F"/>
</svg>
