<svg width="21" height="24" viewBox="0 0 21 24" fill="none" xmlns="http://www.w3.org/2000/svg">
<g filter="url(#filter0_d_53_409)">
<path fill-rule="evenodd" clip-rule="evenodd" d="M14.2857 12C13.9075 12 13.2143 11.928 13.2143 11.816V22H15.3571V11.816C15.3571 11.928 14.6639 12 14.2857 12ZM15.3571 4.18402V2H13.2143V4.18402C12.1429 4.59702 11.0714 5.696 11.0714 7C11.0714 8.657 12.5104 10 14.2857 10C16.0611 10 17.5 8.657 17.5 7C17.5 5.696 16.4286 4.59702 15.3571 4.18402ZM6.78571 12.184V2H4.64286V12.184C4.97929 12.072 5.33607 12 5.71429 12C6.0925 12 6.78571 12.072 6.78571 12.184ZM8.92857 17C8.92857 18.304 7.85714 19.403 6.78571 19.816V22H4.64286V19.816C3.57143 19.403 2.5 18.304 2.5 17C2.5 15.343 3.93893 14 5.71429 14C7.48964 14 8.92857 15.343 8.92857 17Z" fill="#B1FA53"/>
</g>
<defs>
<filter id="filter0_d_53_409" x="-1" y="0" width="24" height="24" filterUnits="userSpaceOnUse" color-interpolation-filters="sRGB">
<feFlood flood-opacity="0" result="BackgroundImageFix"/>
<feColorMatrix in="SourceAlpha" type="matrix" values="0 0 0 0 0 0 0 0 0 0 0 0 0 0 0 0 0 0 127 0" result="hardAlpha"/>
<feOffset dx="1"/>
<feGaussianBlur stdDeviation="1"/>
<feComposite in2="hardAlpha" operator="out"/>
<feColorMatrix type="matrix" values="0 0 0 0 0.748188 0 0 0 0 0.954167 0 0 0 0 0.481059 0 0 0 0.25 0"/>
<feBlend mode="normal" in2="BackgroundImageFix" result="effect1_dropShadow_53_409"/>
<feBlend mode="normal" in="SourceGraphic" in2="effect1_dropShadow_53_409" result="shape"/>
</filter>
</defs>
</svg>
