<svg width="20" height="20" viewBox="0 0 20 20" fill="none" xmlns="http://www.w3.org/2000/svg">
<g opacity="0.7">
<path fill-rule="evenodd" clip-rule="evenodd" d="M14.2857 10C13.9075 10 13.2143 9.92798 13.2143 9.81598V20H15.3571V9.81598C15.3571 9.92798 14.6639 10 14.2857 10ZM15.3571 2.18402V0H13.2143V2.18402C12.1429 2.59702 11.0714 3.696 11.0714 5C11.0714 6.657 12.5104 8 14.2857 8C16.0611 8 17.5 6.657 17.5 5C17.5 3.696 16.4286 2.59702 15.3571 2.18402ZM6.78571 10.184V0H4.64286V10.184C4.97929 10.072 5.33607 10 5.71429 10C6.0925 10 6.78571 10.072 6.78571 10.184ZM8.92857 15C8.92857 16.304 7.85714 17.403 6.78571 17.816V20H4.64286V17.816C3.57143 17.403 2.5 16.304 2.5 15C2.5 13.343 3.93893 12 5.71429 12C7.48964 12 8.92857 13.343 8.92857 15Z" fill="white"/>
</g>
</svg>
