<svg width="17" height="14" viewBox="0 0 17 14" fill="none" xmlns="http://www.w3.org/2000/svg">
<path d="M14.3333 6.83333C14.3333 3.61168 11.7217 1 8.5 1C5.27834 1 2.66667 3.61168 2.66667 6.83333M11.8333 9.75V11.4167C11.8333 11.8039 11.8333 11.9975 11.8653 12.1585C11.9968 12.8197 12.5137 13.3368 13.1749 13.4683C13.3359 13.5003 13.5294 13.5002 13.9167 13.5002C14.3039 13.5002 14.4975 13.5003 14.6585 13.4683C15.3197 13.3368 15.8363 12.8197 15.9678 12.1585C15.9999 11.9975 16 11.8039 16 11.4167V9.75C16 9.36275 15.9999 9.16883 15.9678 9.00783C15.8363 8.34667 15.3197 7.83017 14.6585 7.69867C14.4975 7.66667 14.3039 7.66667 13.9167 7.66667C13.5294 7.66667 13.3359 7.66667 13.1749 7.69867C12.5137 7.83017 11.9968 8.34667 11.8653 9.00783C11.8333 9.16883 11.8333 9.36275 11.8333 9.75ZM5.16667 9.75V11.4167C5.16667 11.8039 5.16655 11.9975 5.13452 12.1585C5.00301 12.8197 4.48627 13.3368 3.82512 13.4683C3.66412 13.5003 3.47057 13.5002 3.08337 13.5002C2.69616 13.5002 2.50255 13.5003 2.34155 13.4683C1.6804 13.3368 1.16353 12.8197 1.03202 12.1585C1 11.9975 1 11.8039 1 11.4167V9.75C1 9.36275 1 9.16883 1.03202 9.00783C1.16353 8.34667 1.6804 7.83017 2.34155 7.69867C2.50255 7.66667 2.69616 7.66667 3.08337 7.66667C3.47058 7.66667 3.66412 7.66667 3.82512 7.69867C4.48627 7.83017 5.00301 8.34667 5.13452 9.00783C5.16655 9.16883 5.16667 9.36275 5.16667 9.75Z" stroke="white" stroke-linecap="round" stroke-linejoin="round"/>
</svg>
