<svg width="12" height="15" viewBox="0 0 12 15" fill="none" xmlns="http://www.w3.org/2000/svg">
<path d="M6.59393 3.37244H1.66104V4.17781H6.59393V3.37244Z" fill="white"/>
<path d="M8.40978 3.54506L7.97785 3.08605L7.39134 3.63793L8.44733 4.76027L9.9508 2.9502L9.33127 2.43567L8.40978 3.54506Z" fill="white"/>
<path d="M6.59393 5.88928H1.66104V6.69465H6.59393V5.88928Z" fill="white"/>
<path d="M8.40978 6.06191L7.97785 5.6029L7.39134 6.15478L8.44733 7.27711L9.9508 5.46704L9.33127 4.95251L8.40978 6.06191Z" fill="white"/>
<path d="M6.59393 8.40601H1.66104V9.21137H6.59393V8.40601Z" fill="white"/>
<path d="M8.40978 8.57863L7.97785 8.11962L7.39134 8.6715L8.44733 9.79384L9.9508 7.98377L9.33127 7.46924L8.40978 8.57863Z" fill="white"/>
<path d="M6.59393 10.9229H1.66104V11.7282H6.59393V10.9229Z" fill="white"/>
<path d="M8.40978 11.0954L7.97785 10.6363L7.39134 11.1882L8.44733 12.3106L9.9508 10.5005L9.33127 9.98596L8.40978 11.0954Z" fill="white"/>
<path d="M11.6275 1.15772C11.6275 0.518305 11.1092 0 10.4698 0H1.15772C0.518305 0 0 0.518305 0 1.15772V13.8423C0 14.4817 0.518305 15 1.15772 15H10.4698C11.1092 15 11.6275 14.4817 11.6275 13.8423V1.15772ZM10.8221 13.8423C10.8221 14.0369 10.6644 14.1946 10.4698 14.1946H1.15772C0.963121 14.1946 0.805369 14.0369 0.805369 13.8423V1.15772C0.805369 0.963121 0.963121 0.805369 1.15772 0.805369H10.4698C10.6644 0.805369 10.8221 0.963121 10.8221 1.15772V13.8423Z" fill="white"/>
</svg>
