<svg width="15" height="15" viewBox="0 0 15 15" fill="none" xmlns="http://www.w3.org/2000/svg">
<path d="M12.6489 7.50001H5.36051V4.47951C5.36051 3.31936 6.29213 2.35549 7.45592 2.34377C8.63147 2.33206 9.59248 3.2842 9.59248 4.45315V4.92189C9.59248 5.31154 9.90693 5.62502 10.2978 5.62502H11.2382C11.6291 5.62502 11.9436 5.31154 11.9436 4.92189V4.45315C11.9436 1.99221 9.93045 -0.0087602 7.4618 2.88433e-05C4.99315 0.00881789 3.00942 2.03616 3.00942 4.49709V7.50001H2.30409C1.52529 7.50001 0.893433 8.1299 0.893433 8.90626V13.5938C0.893433 14.3701 1.52529 15 2.30409 15H12.6489C13.4277 15 14.0596 14.3701 14.0596 13.5938V8.90626C14.0596 8.1299 13.4277 7.50001 12.6489 7.50001ZM8.65204 11.9531C8.65204 12.6006 8.12598 13.125 7.47649 13.125C6.827 13.125 6.30095 12.6006 6.30095 11.9531V10.5469C6.30095 9.89942 6.827 9.37501 7.47649 9.37501C8.12598 9.37501 8.65204 9.89942 8.65204 10.5469V11.9531Z" fill="#1F1F1F"/>
</svg>
