<svg width="15" height="14" viewBox="0 0 15 14" fill="none" xmlns="http://www.w3.org/2000/svg">
<path d="M9.19565 4.24327C9.19565 5.02112 7.36004 5.65362 5.09648 5.65362C2.83292 5.65362 1 5.02112 1 4.24327M6.25652 7.3735C6.14886 7.3735 5.20683 7.3735 5.09648 7.3735C2.83292 7.3735 1 6.74099 1 5.96315M5.59172 9.14182C5.43023 9.14182 5.26335 9.14182 5.09648 9.14182C2.83292 9.14182 1 8.51201 1 7.73147M5.80435 10.8994C5.56901 10.9204 5.33265 10.9276 5.09648 10.9209C2.83292 10.9209 1 10.2884 1 9.51056M1 9.52402V2.41573M9.19565 6.453V2.41035M14 9.84969C14 10.6302 12.1671 11.26 9.90352 11.26C7.63996 11.26 5.80435 10.6302 5.80435 9.84969M14 11.5642C14 12.3447 12.1671 12.9772 9.90352 12.9772C7.63996 12.9772 5.80435 12.3474 5.80435 11.5642M5.80435 11.5426V7.81491M14 11.6207V7.96832M9.19296 2.41035C9.19296 3.18927 7.3589 3.8207 5.09648 3.8207C2.83406 3.8207 1 3.18927 1 2.41035C1 1.63144 2.83406 1 5.09648 1C7.3589 1 9.19296 1.63144 9.19296 2.41035ZM14 8.01677C14 8.79569 12.1659 9.42712 9.90352 9.42712C7.6411 9.42712 5.80704 8.79569 5.80704 8.01677C5.80704 7.23785 7.6411 6.60642 9.90352 6.60642C12.1659 6.60642 14 7.23785 14 8.01677Z" stroke="#B1FA53" stroke-linecap="round"/>
</svg>
